<svg data-v-0dd9719b="" version="1.0" xmlns="http://www.w3.org/2000/svg" xmlns:xlink="http://www.w3.org/1999/xlink" width="100%" height="100%" viewBox="0 0 340.000000 250.000000" preserveAspectRatio="xMidYMid meet" color-interpolation-filters="sRGB" style="margin: auto;"> <rect data-v-0dd9719b="" x="0" y="0" width="100%" height="100%" fill="#fff" fill-opacity="1" class="background"></rect> <rect data-v-0dd9719b="" x="0" y="0" width="100%" height="100%" fill="url(#watermark)" fill-opacity="1" class="watermarklayer"></rect> <g data-v-0dd9719b="" fill="#333" class="icon-text-wrapper icon-svg-group iconsvg" transform="translate(48.50530242919922,94.99249839782715)"><g class="iconsvg-imagesvg" transform="translate(0,0)"><g><rect fill="#333" fill-opacity="0" stroke-width="2" x="0" y="0" width="60" height="60.01500375093773" class="image-rect"></rect> <svg x="0" y="0" width="60" height="60.01500375093773" filtersec="colorsb2180111164" class="image-svg-svg primary" style="overflow: visible;"><svg xmlns="http://www.w3.org/2000/svg" viewBox="-0.0014552175998687744 -0.041259996592998505 148.58712768554688 148.6242218017578"><path d="M13.26 72.26A28.46 28.46 0 0 0 .62 84.43C.44 82.28.18 80.14.09 78c-.66-15.64 2.19-30.47 10.58-43.9C20.67 18.1 35.16 8 53.18 3a77 77 0 0 1 48.83 2 68.25 68.25 0 0 1 34.07 27.68c6.9 10.75 10.71 22.6 12.3 35.21.47 3.76.43 3.72-3.4 4.1s-7.5.3-11.48 1c2 1.67 3.81 3.3 5.76 4.7 1.43 1 1.45 1.66.07 2.81a162.19 162.19 0 0 1-27.68 18.59 135.29 135.29 0 0 1-51.83 15.73c-13.76 1.22-27.38.47-40.36-4.95a30.22 30.22 0 0 1-11.16-7.4C2 95.49 1.69 87.71 7.15 79.77c1.85-2.66 4.06-4.97 6.11-7.51zM88.2 59.35v38.24c0 1.08-.14 2.19 1.55 1.36a115.43 115.43 0 0 0 19.11-11.87 2.68 2.68 0 0 0 1-2.43v-63.4c0-1.62-.49-2.08-2.06-2.06q-8.76.11-17.52 0c-1.64 0-2.18.41-2.17 2.13.13 12.68.09 25.35.09 38.03zm-24.4 17v29.57c0 1.73.38 2.27 2.17 1.76a168.41 168.41 0 0 0 17.52-5.89 2.71 2.71 0 0 0 2-2.94q-.1-26.06 0-52.11c0-1.52-.34-2.11-2-2.08-5.84.09-11.68.08-17.52 0-1.62 0-2.18.39-2.16 2.11.04 9.87 0 19.73-.01 29.59zM38.89 89v20.33c0 1.36.29 1.89 1.76 1.83a142.93 142.93 0 0 0 18-2c1.5-.25 2.1-.81 2.09-2.45q-.12-19.12 0-38.26c0-1.62-.47-2.07-2.05-2-5.91.07-11.82.08-17.73 0-1.56 0-2.08.38-2.06 2 .04 6.89-.01 13.73-.01 20.55z" fill="#ec1e27"></path><path d="M14 116.83a48.6 48.6 0 0 0 15 7.52 98.62 98.62 0 0 0 30.47 3.37 168.53 168.53 0 0 0 28.15-3.19c18.67-3.72 36.52-9.68 52.94-19.5.43-.25.82-.71 1.56-.46a14.3 14.3 0 0 1-2 4.51C131 126 117.71 138.3 99.4 144.24c-27.15 8.81-52.14 4.26-74.31-14.05A63.3 63.3 0 0 1 15 119.3c-.53-.71-1.26-1.44-1-2.5zM14 116.8l-.31-.06c.22-.34.19.05.28.09z" fill="#47a6ae"></path></svg></svg> <!----></g></g> <g transform="translate(67.00000381469727,5.707841873168945)"><g data-gra="path-name" fill-rule="" class="tp-name iconsvg-namesvg" transform="translate(0,0)"><g transform="scale(1)"><g><path d="M30.3 2.67L30.3 2.67Q30.66 2.88 30.83 2.94 31.01 2.99 31.1 2.92 31.18 2.85 31.22 2.64L31.22 2.64Q31.36 1.83 32.03 1.13 32.7 0.42 33.54 0.18L33.54 0.18Q34.63-0.14 33.54-0.53L33.54-0.53Q28.62-2.39 25.19-5.38 21.76-8.37 20.21-12.09L20.21-12.09Q19.44-13.96 19.44-14.24L19.44-14.24Q19.48-14.84 20.88-14.98L20.88-14.98Q21.55-15.01 26.05-15.05L26.05-15.05Q32.06-15.08 32.38-15.22L32.38-15.22Q32.52-15.29 32.55-15.57L32.55-15.57Q32.59-15.82 31.64-16.7 30.69-17.58 29.6-18.35L29.6-18.35Q29-18.77 28.78-18.69 28.55-18.6 27.81-17.65L27.81-17.65Q26.96-16.52 26.72-16.35L26.72-16.35Q26.23-16.07 23.94-16.07L23.94-16.07Q22.96-16.07 22.78-16.07L22.78-16.07Q22.43-16.07 21.76-16.07L21.76-16.07Q19.37-16.07 19.05-16.31L19.05-16.31Q18.77-16.52 18.88-17.68L18.88-17.68Q18.91-18 18.91-18.18L18.91-18.18Q19.02-19.23 19.09-22.08L19.09-22.08Q19.09-22.32 19.09-23.27L19.09-23.27Q19.09-25 19.69-25.28 20.29-25.56 23.91-25.56L23.91-25.56Q25.49-25.56 26.47-25.56L26.47-25.56Q31.78-25.59 32.59-25.63 33.4-25.66 33.54-25.95 33.68-26.23 32.66-27.23 31.64-28.23 30.41-29L30.41-29Q29.92-29.36 29.69-29.23 29.46-29.11 28.69-28.02L28.69-28.02Q27.81-26.72 27.28-26.61L27.28-26.61Q26.93-26.54 15.43-26.6 3.94-26.65 3.27-26.72L3.27-26.72Q2.46-26.79 2.39-26.68 2.32-26.58 2.71-25.88L2.71-25.88Q3.06-25.21 3.2-25.14 3.34-25.07 4.01-25.17L4.01-25.17Q6.15-25.49 10.72-25.52L10.72-25.52Q11.18-25.52 11.99-25.52L11.99-25.52Q14.73-25.56 15.15-25.31L15.15-25.31Q15.5-25.07 15.47-23.94L15.47-23.94Q15.47-23.91 15.47-23.84L15.47-23.84Q15.47-23.48 15.47-23.31L15.47-23.31Q15.47-16.59 14.8-16.21L14.8-16.21Q14.48-16.03 10.35-16.05 6.22-16.07 4.15-16.24L4.15-16.24Q3.66-16.31 3.64-16.21 3.62-16.1 3.94-15.4 4.25-14.7 4.39-14.63 4.54-14.55 5.41-14.7L5.41-14.7Q7.42-14.98 11.07-15.01L11.07-15.01Q14.17-15.05 14.63-14.84L14.63-14.84Q15.05-14.59 14.84-13.39L14.84-13.39Q14.8-13.32 14.7-12.73L14.7-12.73Q13.68-7.8 10.85-4.27 8.02-0.74 2.99 1.9L2.99 1.9Q2.6 2.07 2.39 2.2 2.18 2.32 2.09 2.43 2 2.53 2.02 2.6 2.04 2.67 2.11 2.74L2.11 2.74Q2.29 2.88 2.44 2.85 2.6 2.81 3.48 2.5L3.48 2.5Q9.81 0.07 13.17-3.27 16.52-6.61 18-11.99L18-11.99Q18.42-13.57 18.69-13.61 18.95-13.64 19.34-12.13L19.34-12.13Q21.83-1.83 30.3 2.67ZM41.27 2.88L41.27 2.88Q42.96 3.73 43.73 1.97L43.73 1.97Q44.61-0.07 43.63-3.55L43.63-3.55Q42.93-6.08 43.24-7.98L43.24-7.98Q43.42-9.11 44.7-13.99 45.98-18.88 46.2-19.3L46.2-19.3Q46.34-19.62 46.62-19.63 46.9-19.65 47.04-19.37L47.04-19.37Q47.21-19.09 47.74-19.16L47.74-19.16Q49.39-19.44 51.75-19.55 54.11-19.65 54.42-19.48L54.42-19.48Q54.95-19.2 54.97-17.56 54.98-15.93 54.46-15.64L54.46-15.64Q54.25-15.54 51.96-15.56 49.68-15.57 48.38-15.68L48.38-15.68Q47.53-15.75 47.46-15.68 47.39-15.61 47.74-14.94L47.74-14.94Q48.09-14.24 48.23-14.13 48.38-14.03 48.87-14.13L48.87-14.13Q50.24-14.38 52.17-14.5 54.11-14.63 54.42-14.45L54.42-14.45Q54.81-14.24 54.97-12.81 55.13-11.39 54.81-10.79L54.81-10.79Q54.6-10.37 52.45-10.3 50.31-10.23 47.21-10.51L47.21-10.51Q46.58-10.55 46.55-10.44 46.51-10.34 46.9-9.63L46.9-9.63Q47.21-8.96 47.44-8.91 47.67-8.86 49.04-9.07L49.04-9.07Q50.31-9.25 52.24-9.28 54.18-9.32 54.46-9.18L54.46-9.18Q54.98-8.89 54.97-7.05 54.95-5.2 54.42-4.92L54.42-4.92Q54.18-4.78 50.5-4.83 46.83-4.89 45.6-5.06L45.6-5.06Q45.28-5.13 45.32-4.92L45.32-4.92Q45.32-4.75 45.6-4.22L45.6-4.22Q45.95-3.52 46.13-3.45 46.3-3.38 47.36-3.52L47.36-3.52Q49.32-3.76 51.75-3.81 54.18-3.87 54.49-3.69L54.49-3.69Q55.23-3.23 54.81 1.65L54.81 1.65Q54.74 2.46 54.91 2.72 55.09 2.99 55.65 2.99L55.65 2.99Q56.71 2.95 57.53 2.41 58.36 1.86 58.29 1.23L58.29 1.23Q58.22 0.32 58.2-1.37 58.18-3.06 58.29-3.3L58.29-3.3Q58.43-3.62 58.64-3.69L58.64-3.69Q59.1-3.8 64.2-3.83L64.2-3.83Q68.52-3.87 69.22-3.9 69.93-3.94 70.1-4.22L70.1-4.22Q70.42-4.71 68.1-6.57L68.1-6.57Q67.08-7.42 66.81-7.33 66.55-7.24 65.46-5.77L65.46-5.77Q64.93-5.06 64.53-4.96 64.13-4.85 61.7-4.82L61.7-4.82Q61.49-4.82 61.14-4.82L61.14-4.82Q58.92-4.82 58.55-5.04 58.18-5.27 58.18-6.71L58.18-6.71Q58.18-6.96 58.18-7.1L58.18-7.1Q58.18-7.35 58.18-7.73L58.18-7.73Q58.15-8.79 58.46-9L58.46-9Q58.85-9.28 61.66-9.28L61.66-9.28Q62.65-9.28 63.25-9.28L63.25-9.28Q66.83-9.32 67.43-9.35 68.03-9.39 68.2-9.67L68.2-9.67Q68.52-10.16 66.34-11.92L66.34-11.92Q65.21-12.73 65.21-12.9L65.21-12.9Q65.21-13.15 66.09-13.68L66.09-13.68Q66.38-13.85 66.39-14.01 66.41-14.17 66.38-15.15L66.38-15.15Q66.2-18.46 66.46-19 66.73-19.55 68.55-19.58L68.55-19.58Q70.59-19.58 70.79-19.97 70.98-20.36 69.61-21.73L69.61-21.73Q68.7-22.61 68.41-22.66 68.13-22.71 67.68-22.01L67.68-22.01Q66.34-20.04 66.3-22.39L66.3-22.39Q66.3-23.34 66.45-23.66 66.59-23.98 67.11-24.26L67.11-24.26Q67.46-24.43 67.57-24.61 67.68-24.79 67.5-25.07 67.32-25.35 66.92-25.68 66.52-26.02 65.71-26.61L65.71-26.61Q64.79-27.25 64.53-27.26 64.27-27.28 63.81-26.68L63.81-26.68Q63.14-25.88 62.7-25.72 62.26-25.56 60.61-25.56L60.61-25.56Q58.85-25.56 58.5-25.77 58.15-25.98 58.22-27L58.22-27Q58.22-28.02 58.68-28.34L58.68-28.34Q59.52-28.79 57.87-29.43L57.87-29.43Q57.09-29.71 55.69-30.09L55.69-30.09Q54.91-30.27 54.83-30.22 54.74-30.16 54.81-29.5L54.81-29.5Q55.16-26.05 54.42-25.7L54.42-25.7Q54.07-25.56 52-25.58 49.92-25.59 48.34-25.77L48.34-25.77Q47.71-25.84 47.71-25.7L47.71-25.7Q47.71-25.59 48.02-24.93L48.02-24.93Q48.38-24.26 48.55-24.21 48.73-24.15 49.92-24.33L49.92-24.33Q53.02-24.82 53.98-24.49 54.95-24.15 54.95-22.57L54.95-22.57Q54.95-22.43 54.95-22.22L54.95-22.22Q54.95-20.99 54.6-20.79 54.25-20.6 51.93-20.64L51.93-20.64Q51.47-20.64 51.22-20.64L51.22-20.64Q47.67-20.67 47.14-20.88 46.62-21.09 46.97-22.39L46.97-22.39Q47.07-22.78 47.13-23.01 47.18-23.24 47.16-23.36 47.14-23.48 47.09-23.52 47.04-23.55 46.9-23.55L46.9-23.55Q46.72-23.55 46.58-23.26 46.44-22.96 45.6-20.81L45.6-20.81Q45.11-19.44 44.63-18.26 44.16-17.09 43.91-16.45L43.91-16.45Q43.42-14.87 41.41-9.91L41.41-9.91Q40.71-8.33 40.34-7.93 39.97-7.52 39.06-7.49L39.06-7.49Q38.46-7.45 38.34-7.38 38.21-7.31 38.29-7.03L38.29-7.03Q38.39-6.79 38.81-6.71L38.81-6.71Q40.04-6.47 40.43-4.94 40.82-3.41 40.5-0.04L40.5-0.04Q40.36 1.34 40.54 1.97 40.71 2.6 41.27 2.88ZM63.04-10.51L63.04-10.51Q62.75-10.34 60.86-10.3L60.86-10.3Q58.78-10.3 58.48-10.55 58.18-10.79 58.18-12.41 58.18-14.03 58.48-14.29 58.78-14.55 60.64-14.55L60.64-14.55Q62.44-14.55 62.84-14.38 63.25-14.2 63.28-13.43L63.28-13.43Q63.32-13.11 63.39-13.06 63.46-13.01 63.77-12.97L63.77-12.97Q64.51-12.94 64.51-12.59L64.51-12.59Q64.51-12.38 63.93-11.55 63.35-10.72 63.04-10.51ZM62.86-15.71L62.86-15.71Q62.61-15.54 60.73-15.52 58.85-15.5 58.61-15.68L58.61-15.68Q58.11-15.96 58.15-17.58 58.18-19.2 58.68-19.44L58.68-19.44Q58.92-19.62 60.68-19.62 62.44-19.62 62.72-19.44L62.72-19.44Q63.28-19.2 63.33-17.63 63.39-16.07 62.86-15.71ZM62.86-20.78L62.86-20.78Q62.61-20.6 60.73-20.58 58.85-20.57 58.61-20.74L58.61-20.74Q58.15-21.02 58.15-22.59 58.15-24.15 58.61-24.43L58.61-24.43Q58.85-24.61 60.73-24.57 62.61-24.54 62.86-24.36L62.86-24.36Q63.32-24.08 63.32-22.57 63.32-21.06 62.86-20.78ZM41.38-16.52L41.38-16.52Q42.4-16.14 43-16.7 43.59-17.26 43.47-18.26 43.35-19.27 42.47-20.07L42.47-20.07Q41.34-21.13 39.16-21.66L39.16-21.66Q37.79-21.97 37.86-21.55L37.86-21.55Q37.9-21.41 38.11-21.2L38.11-21.2Q38.95-20.39 39.74-19.14 40.54-17.89 40.71-17.16L40.71-17.16Q40.82-16.73 41.38-16.52ZM44.44-24.26L44.44-24.26Q45.25-23.98 45.9-24.52 46.55-25.07 46.51-25.95L46.51-25.95Q46.51-27.25 45.21-28.28 43.91-29.32 41.73-29.74L41.73-29.74Q41.13-29.85 40.85-29.88 40.57-29.92 40.48-29.83 40.39-29.74 40.5-29.57 40.61-29.39 40.92-29.04L40.92-29.04Q43.17-26.54 43.7-24.82L43.7-24.82Q43.8-24.47 44.44-24.26ZM80.72 2.99L80.72 2.99Q81.6 3.09 82.56 2.65 83.53 2.21 83.6 1.65L83.6 1.65Q83.6 1.58 83.64 1.48L83.64 1.48Q83.67 0.98 84.06 0.88L84.06 0.88Q84.59 0.7 88.95 0.7L88.95 0.7 90.21 0.7Q90.56 0.7 91.23 0.7L91.23 0.7Q95.45 0.7 96.13 0.83 96.82 0.95 96.79 1.72L96.79 1.72Q96.79 1.86 96.79 1.93L96.79 1.93Q96.79 2.71 97.24 2.83 97.7 2.95 98.93 2.57L98.93 2.57Q99.04 2.53 99.25 2.46L99.25 2.46Q99.98 2.25 100.13 1.86L100.13 1.86Q100.3 1.37 100.2-1.97L100.2-1.97Q100.16-2.74 100.16-3.16L100.16-3.16Q100.05-7.52 100.14-8.51 100.23-9.49 100.72-9.81L100.72-9.81Q101.36-10.16 101.37-10.35 101.39-10.55 100.93-11L100.93-11Q100.41-11.53 99.53-12.2 98.65-12.87 98.33-12.94L98.33-12.94Q98.16-12.97 97.31-12.13L97.31-12.13Q96.68-11.46 96.5-11.39L96.5-11.39Q95.98-11.14 92.11-11.14L92.11-11.14Q90.53-11.14 90.04-11.14L90.04-11.14Q84.9-11.14 84.23-11.21 83.57-11.29 81.77-12.06L81.77-12.06Q80.19-12.73 80.05-12.73L80.05-12.73Q79.95-12.73 80.12-10.93L80.12-10.93Q80.12-10.83 80.16-10.55L80.16-10.55Q80.33-8.68 80.33-4.61 80.33-0.53 80.16 1.9L80.16 1.9Q80.05 2.88 80.72 2.99ZM96.4-0.39L96.4-0.39Q96.15-0.25 90.19-0.26 84.23-0.28 84.02-0.42L84.02-0.42Q83.53-0.7 83.53-2.57 83.53-4.43 84.02-4.71L84.02-4.71Q84.27-4.85 90.21-4.85 96.15-4.85 96.4-4.71L96.4-4.71Q96.89-4.43 96.89-2.55 96.89-0.67 96.4-0.39ZM96.33-5.98L96.33-5.98Q96.05-5.84 90.21-5.84 84.38-5.84 84.09-5.98L84.09-5.98Q83.57-6.22 83.55-7.98 83.53-9.74 84.02-10.05L84.02-10.05Q84.27-10.2 90.21-10.2 96.15-10.2 96.4-10.05L96.4-10.05Q96.89-9.74 96.87-7.98 96.86-6.22 96.33-5.98ZM74.46-11L74.46-11Q74.6-10.86 74.71-10.88 74.81-10.9 75.59-11.18L75.59-11.18Q80.54-13.01 82.65-16.1L82.65-16.1Q83.36-17.16 83.78-17.12 84.2-17.09 85.43-15.93L85.43-15.93Q86.77-14.59 87.5-13.43L87.5-13.43Q88.07-12.55 88.86-12.64 89.65-12.73 89.93-13.46 90.21-14.2 89.82-15.19L89.82-15.19Q89.37-16.17 88.08-16.96 86.8-17.75 85.15-18.07L85.15-18.07Q83.74-18.39 84.23-19.48L84.23-19.48Q84.41-19.9 84.87-19.97 85.32-20.04 87.93-20.07L87.93-20.07Q90.46-20.11 90.93-20.18 91.41-20.25 91.48-20.57L91.48-20.57Q91.65-21.16 89.44-22.89L89.44-22.89Q88.66-23.45 88.44-23.4 88.21-23.34 87.4-22.32L87.4-22.32Q86.8-21.59 86.52-21.38 86.24-21.16 85.78-21.13L85.78-21.13Q84.97-21.06 84.8-21.41 84.62-21.76 84.73-23.06L84.73-23.06Q84.73-23.17 84.76-23.38L84.76-23.38Q84.83-24.75 85.11-25L85.11-25Q85.46-25.24 87.4-25.28L87.4-25.28Q87.75-25.28 87.93-25.28L87.93-25.28Q89.93-25.31 90.32-25.37 90.7-25.42 90.84-25.66L90.84-25.66Q91.16-26.12 89.19-27.77L89.19-27.77Q88.17-28.62 87.89-28.58 87.61-28.55 86.91-27.56L86.91-27.56Q86.17-26.58 85.85-26.47L85.85-26.47Q85.54-26.33 83.67-26.3L83.67-26.3Q81.98-26.3 81.6-26.33 81.21-26.37 81.04-26.54L81.04-26.54Q80.75-26.82 81.07-27.56 81.39-28.3 81.95-28.58L81.95-28.58Q82.65-28.93 81.74-29.36L81.74-29.36Q81.14-29.64 79.63-30.13L79.63-30.13Q78.33-30.55 78.22-30.48L78.22-30.48Q78.12-30.41 78.05-29.64L78.05-29.64Q77.66-25.91 76.18-22.92L76.18-22.92Q75.76-22.04 75.74-21.97 75.73-21.9 75.8-21.73L75.8-21.73Q76.04-21.48 75.48-21.38L75.48-21.38Q75.13-21.3 74.64-21.34L74.64-21.34Q74.18-21.38 74.16-21.25 74.14-21.13 74.5-20.43L74.5-20.43Q74.85-19.79 74.95-19.72 75.06-19.65 75.69-19.76L75.69-19.76Q78.12-20.21 79.59-20.09 81.07-19.97 81.07-19.3L81.07-19.3Q81.07-17.58 79.37-15.42 77.66-13.25 75.23-11.88L75.23-11.88Q74.85-11.67 74.65-11.55 74.46-11.43 74.39-11.34 74.32-11.25 74.34-11.18 74.36-11.11 74.46-11ZM80.96-21.23L80.96-21.23Q80.58-21.06 78.79-21.09 76.99-21.13 76.64-21.38L76.64-21.38Q76.36-21.52 76.43-21.69 76.5-21.87 77.06-22.36L77.06-22.36Q78.15-23.2 79.17-24.43L79.17-24.43Q79.63-25.1 80.31-25.26 81-25.42 81.35-25L81.35-25Q81.77-24.54 81.62-22.99 81.46-21.45 80.96-21.23ZM92.14-13.18L92.14-13.18Q92.74-12.55 94.03-13.18 95.31-13.82 95.31-14.73L95.31-14.73Q95.31-15.68 95.68-15.84 96.05-16 98.19-16L98.19-16Q100.37-16 100.74-15.84 101.11-15.68 101.07-14.66L101.07-14.66Q101.07-13.78 101.48-13.64 101.88-13.5 103.11-13.89L103.11-13.89Q104.2-14.24 104.38-14.52 104.55-14.8 104.48-16.03L104.48-16.03Q103.92-24.57 105.12-25.21L105.12-25.21Q105.71-25.52 105.64-25.8 105.57-26.09 104.77-26.75L104.77-26.75Q103.68-27.67 103.24-27.93 102.8-28.2 102.48-28.13 102.16-28.05 101.67-27.49L101.67-27.49Q100.93-26.72 100.55-26.61 100.16-26.51 97.98-26.51L97.98-26.51Q95.94-26.51 95.47-26.6 94.99-26.68 93.45-27.35L93.45-27.35Q93.09-27.49 92.69-27.67 92.29-27.84 92.07-27.91L92.07-27.91 91.86-28.02Q91.76-28.02 91.97-25.77L91.97-25.77Q92.11-24.08 92.11-20.85L92.11-20.85Q92.14-16.66 91.97-13.99L91.97-13.99Q91.9-13.39 92.14-13.18ZM100.72-17.09L100.72-17.09Q100.48-16.95 98.19-16.96 95.91-16.98 95.7-17.12L95.7-17.12Q95.38-17.3 95.33-17.82 95.27-18.35 95.27-21.23L95.27-21.23Q95.27-21.69 95.27-22.46L95.27-22.46Q95.24-24.75 95.5-25.14 95.77-25.52 97.38-25.49L97.38-25.49Q97.91-25.49 98.19-25.49L98.19-25.49Q100.3-25.49 100.55-25.38L100.55-25.38Q101.11-25.17 101.14-23.87L101.14-23.87Q101.14-23.84 101.14-21.23L101.14-21.23Q101.14-18.32 101.09-17.79 101.04-17.26 100.72-17.09ZM124.66 3.02L124.66 3.02Q125.16 3.16 126.19 2.83 127.23 2.5 127.62 2.07L127.62 2.07Q127.79 1.86 127.72 0.32L127.72 0.32Q127.16-10.58 128-10.58L128-10.58Q128.25-10.58 128.67-9.81L128.67-9.81Q131.8-3.66 138.09 0.18L138.09 0.18Q138.94 0.67 139.11 0.7 139.29 0.74 139.43 0.39L139.43 0.39Q139.99-1.2 141.36-1.76L141.36-1.76Q142.38-2.18 141.47-2.5L141.47-2.5Q137.81-3.69 133.61-6.59 129.41-9.49 129.06-11.07L129.06-11.07Q128.95-11.53 129.27-11.64L129.27-11.64Q129.83-11.81 135.25-11.81L135.25-11.81Q139.78-11.81 140.54-11.87 141.29-11.92 141.4-12.2 141.5-12.48 140.87-13.18 140.24-13.89 139.18-14.66L139.18-14.66Q138.3-15.33 138.06-15.29 137.81-15.26 137.11-14.31L137.11-14.31Q136.3-13.25 136.09-13.11L136.09-13.11Q135.6-12.83 133.17-12.83L133.17-12.83Q132.08-12.83 131.87-12.83L131.87-12.83Q131.59-12.83 131.06-12.83L131.06-12.83Q128.36-12.83 127.93-13.03 127.51-13.22 127.55-14.48L127.55-14.48Q127.55-14.7 127.55-14.84L127.55-14.84Q127.55-15.71 127.65-16.01 127.76-16.31 128.14-16.66L128.14-16.66Q128.71-17.19 127.13-17.72L127.13-17.72Q126.35-17.96 125.05-18.28L125.05-18.28Q124.17-18.49 124.08-18.44 124-18.39 124.07-17.72L124.07-17.72Q124.56-13.43 123.86-12.97L123.86-12.97Q123.64-12.83 118.32-12.83 112.99-12.83 111.69-12.97L111.69-12.97Q110.88-13.04 110.81-12.96 110.74-12.87 111.09-12.2L111.09-12.2Q111.45-11.5 111.59-11.41 111.73-11.32 112.61-11.46L112.61-11.46Q114.61-11.74 117.95-11.78L117.95-11.78Q120.9-11.81 121.27-11.57 121.64-11.32 120.69-9.77L120.69-9.77Q117.14-3.8 111.23 0.21L111.23 0.21Q110.81 0.49 110.58 0.65 110.36 0.81 110.25 0.93 110.14 1.05 110.16 1.14 110.18 1.23 110.29 1.3L110.29 1.3Q110.46 1.48 112.22 0.56L112.22 0.56Q115.56-1.05 118.04-2.94 120.52-4.82 123.01-7.59L123.01-7.59Q123.79-8.44 124.1-8.12L124.1-8.12Q124.24-7.95 124.24-4.92 124.24-1.9 124.1 0.49L124.1 0.49Q124 2.25 124.07 2.57 124.14 2.88 124.66 3.02ZM111.94-14.45L111.94-14.45Q113.31-14.1 114.35-15.22 115.38-16.35 115.66-18.49L115.66-18.49Q115.73-19.13 116.23-19.34L116.23-19.34Q116.51-19.44 126.04-19.44 135.56-19.44 135.84-19.34L135.84-19.34Q136.3-19.16 136.21-18.56 136.13-17.96 135.46-16.31L135.46-16.31Q135.14-15.54 135.32-15.4L135.32-15.4Q135.67-15.12 139.01-17.61L139.01-17.61Q140.48-18.7 141.05-18.84L141.05-18.84Q141.86-18.98 141.4-19.69L141.4-19.69Q141.08-20.11 140.1-21.09L140.1-21.09Q138.94-22.29 138.62-22.34 138.3-22.39 137.5-21.55L137.5-21.55Q137.39-21.41 137.18-21.2L137.18-21.2Q136.72-20.64 135.83-20.55 134.93-20.46 129.87-20.46L129.87-20.46Q127.55-20.46 126.11-20.46L126.11-20.46Q125.26-20.46 123.79-20.46L123.79-20.46Q117.84-20.46 116.82-20.5 115.8-20.53 115.63-20.78L115.63-20.78Q115.59-20.81 115.56-20.85L115.56-20.85Q115.35-21.09 115.24-21.59L115.24-21.59Q115.14-22.04 114.98-22.2 114.82-22.36 114.68-22.2 114.54-22.04 114.5-21.59L114.5-21.59Q114.29-19.3 112.11-17.93L112.11-17.93Q110.81-17.05 110.76-15.91 110.71-14.77 111.94-14.45ZM118.83-22.08L118.83-22.08Q119.07-21.8 120.18-21.96 121.29-22.11 121.78-22.5L121.78-22.5Q121.96-22.64 121.99-22.78 122.03-22.92 121.99-23.7L121.99-23.7Q121.99-23.77 121.99-23.94L121.99-23.94Q121.99-24.86 122.31-25.07L122.31-25.07Q122.66-25.28 125.37-25.28L125.37-25.28 125.86-25.28Q126-25.28 126.28-25.28L126.28-25.28Q128.88-25.28 129.3-25.08 129.73-24.89 129.69-23.73L129.69-23.73Q129.69-23.59 129.69-23.48L129.69-23.48Q129.66-22.36 129.92-22.15 130.18-21.94 131.34-22.15L131.34-22.15Q132.43-22.32 132.75-22.62 133.07-22.92 133.03-23.7L133.03-23.7Q133.03-23.77 133.03-23.91L133.03-23.91Q132.96-24.82 133.28-25L133.28-25Q133.7-25.24 137-25.28L137-25.28 137.57-25.28Q141.61-25.31 141.91-25.7 142.21-26.09 139.78-28.05L139.78-28.05Q138.97-28.72 138.71-28.69 138.45-28.65 137.88-27.84L137.88-27.84Q136.97-26.58 136.55-26.4L136.55-26.4Q136.27-26.26 134.93-26.28 133.59-26.3 133.42-26.4L133.42-26.4Q132.96-26.65 133-27.44 133.03-28.23 133.49-28.58L133.49-28.58Q134.05-29 133.1-29.43L133.1-29.43Q132.47-29.71 130.78-30.16L130.78-30.16Q129.83-30.41 129.67-30.36 129.52-30.3 129.59-29.81L129.59-29.81Q129.97-26.96 129.38-26.47L129.38-26.47Q129.16-26.3 125.93-26.26 122.7-26.23 122.41-26.4L122.41-26.4Q121.99-26.68 122.01-27.51 122.03-28.34 122.45-28.58L122.45-28.58Q123.26-28.97 121.89-29.5L121.89-29.5Q121.18-29.78 119.6-30.2L119.6-30.2Q118.79-30.41 118.67-30.36 118.55-30.3 118.58-29.81L118.58-29.81Q118.97-26.96 118.37-26.47L118.37-26.47Q118.13-26.3 115.49-26.3 112.85-26.3 110.43-26.47L110.43-26.47Q109.93-26.54 109.9-26.42 109.86-26.3 110.21-25.59L110.21-25.59Q110.53-24.93 110.65-24.87 110.78-24.82 111.62-24.93L111.62-24.93Q113.38-25.17 115.66-25.26 117.95-25.35 118.23-25.17L118.23-25.17Q118.58-25 118.65-24.7 118.72-24.4 118.69-23.41L118.69-23.41Q118.65-22.25 118.83-22.08ZM158.2 2.92L158.2 2.92Q158.38 3.09 158.55 3.06 158.73 3.02 160.07 2.6L160.07 2.6Q163.62 1.37 166.22-0.42L166.22-0.42Q167.63-1.37 167.91-1.37L167.91-1.37Q168.33-1.37 169.1-0.63L169.1-0.63Q170.89 1.02 173.09 2.11 175.29 3.2 176.55 3.06L176.55 3.06Q177.61 2.92 177.91 2.25 178.21 1.58 177.57 0.67L177.57 0.67Q177.08-0.07 177.03-0.51 176.98-0.95 177.19-2.74L177.19-2.74Q177.4-4.64 177.19-4.64L177.19-4.64Q177.08-4.64 176.8-3.94L176.8-3.94Q176.03-2.07 175.61-1.48 175.18-0.88 174.6-0.93 174.02-0.98 172.79-1.76L172.79-1.76Q170.96-2.95 170.72-3.53 170.47-4.11 171.35-5.2L171.35-5.2Q172.55-6.64 173.71-8.75L173.71-8.75Q174.2-9.63 174.46-9.95 174.73-10.27 175.08-10.37L175.08-10.37Q175.75-10.55 175.25-10.93L175.25-10.93Q174.94-11.21 173.71-11.88L173.71-11.88Q172.9-12.3 172.48-12.53 172.05-12.76 171.81-12.83 171.56-12.9 171.49-12.87 171.42-12.83 171.39-12.69L171.39-12.69Q171-10.83 170.02-8.81 169.03-6.79 168.54-6.79L168.54-6.79Q168.08-6.79 167.41-8.19 166.75-9.6 166.29-11.64L166.29-11.64Q165.97-12.97 166.34-13.18 166.71-13.39 169.07-13.36L169.07-13.36Q171.98-13.32 174.69-13.36L174.69-13.36Q176.73-13.43 177.12-13.48 177.5-13.54 177.64-13.78L177.64-13.78Q177.82-14.03 177.13-14.82 176.45-15.61 175.39-16.42L175.39-16.42Q174.76-16.88 174.52-16.8 174.27-16.73 173.64-15.79L173.64-15.79Q173.04-14.98 172.74-14.73 172.44-14.48 171.98-14.48L171.98-14.48Q171.07-14.48 171.42-15.26L171.42-15.26Q171.74-15.89 171.32-16.77L171.32-16.77Q171.04-17.3 171.18-17.54 171.32-17.79 172.09-17.93L172.09-17.93Q173.32-18.18 173.64-18.56L173.64-18.56Q173.74-18.7 173.67-20.67L173.67-20.67Q173.5-24.36 173.6-25.4 173.71-26.44 174.27-26.75L174.27-26.75Q174.97-27.14 174.88-27.47 174.8-27.81 173.71-28.72L173.71-28.72Q172.27-29.95 171.86-30.08 171.46-30.2 170.93-29.43L170.93-29.43Q170.82-29.29 170.65-29.04L170.65-29.04Q170.19-28.37 169.4-28.27 168.61-28.16 164.29-28.16L164.29-28.16Q162.88-28.16 162.07-28.16L162.07-28.16Q161.05-28.16 159.4-28.16L159.4-28.16Q155.57-28.16 154.74-28.23 153.91-28.3 152.82-28.79L152.82-28.79Q152.44-28.97 152.19-29.07L152.19-29.07Q150.79-29.71 150.71-29.53L150.71-29.53Q150.68-29.5 150.71-29.32L150.71-29.32Q150.89-28.05 151-23.89 151.1-19.72 150.96-18.11L150.96-18.11Q150.86-17.05 151.15-16.8 151.45-16.56 152.54-16.84L152.54-16.84Q154.23-17.26 154.23-17.96L154.23-17.96Q154.23-18.77 154.81-18.93 155.39-19.09 158.52-19.09L158.52-19.09Q161.37-19.05 161.84-18.98 162.32-18.91 162.28-18.46L162.28-18.46Q162.28-18.39 162.28-18.35L162.28-18.35Q162.28-17.75 162.39-16.59L162.39-16.59Q162.39-16.42 162.42-16.14L162.42-16.14Q162.53-14.84 162.11-14.63 161.68-14.41 159.01-14.41L159.01-14.41Q158.31-14.41 157.89-14.41L157.89-14.41Q154.41-14.41 153.83-14.48 153.25-14.55 151.49-15.33L151.49-15.33Q149.84-16.03 149.73-15.89L149.73-15.89Q149.66-15.82 149.7-15.36L149.7-15.36Q149.77-14.7 149.77-11.07 149.77-7.45 149.7-6.71L149.7-6.71Q149.24-1.37 146.64 1.83L146.64 1.83Q146.14 2.46 146.07 2.62 146 2.78 146.11 2.88L146.11 2.88Q146.25 2.99 147.55 2.18L147.55 2.18Q152.19-0.88 152.96-7.1L152.96-7.1Q153.14-8.3 153.46-8.51 153.77-8.72 155.53-8.72L155.53-8.72Q157.36-8.68 157.62-8.24 157.89-7.8 157.68-5.2L157.68-5.2Q157.5-3.16 157.01-2.76 156.52-2.36 154.44-2.53L154.44-2.53Q153.39-2.6 153.28-2.5L153.28-2.5Q153.21-2.43 153.26-2.25 153.32-2.07 153.46-2.07L153.46-2.07Q154.34-2.07 155.11-1.32 155.88-0.56 155.95 0.35L155.95 0.35Q155.99 0.84 156.08 0.93 156.16 1.02 156.62 0.98L156.62 0.98Q158.91 0.81 159.77-0.67 160.63-2.14 160.8-6.05L160.8-6.05Q160.84-7.35 161-7.79 161.16-8.23 161.58-8.4L161.58-8.4Q162.56-8.79 161.16-10.02L161.16-10.02Q160.84-10.3 160.35-10.65L160.35-10.65Q159.5-11.29 159.28-11.29 159.05-11.29 158.34-10.62L158.34-10.62Q157.61-9.91 157.29-9.81 156.97-9.7 155.43-9.7L155.43-9.7Q153.7-9.7 153.39-9.95 153.07-10.2 153.07-11.57L153.07-11.57Q153.07-11.71 153.07-11.95L153.07-11.95Q153.04-12.94 153.35-13.15L153.35-13.15Q153.84-13.39 156.97-13.39L156.97-13.39Q157.61-13.39 157.96-13.39L157.96-13.39Q158.34-13.39 159.05-13.39L159.05-13.39Q162.11-13.39 162.53-13.15L162.53-13.15Q162.81-12.97 162.98-12.16L162.98-12.16Q163.02-11.92 163.05-11.81L163.05-11.81Q163.9-7.88 165.55-5.03L165.55-5.03Q166.22-3.94 166.17-3.55 166.11-3.16 165.23-2.32L165.23-2.32Q162.42 0.35 159.05 2.14L159.05 2.14Q158.31 2.5 158.19 2.62 158.06 2.74 158.2 2.92ZM169.07-14.55L169.07-14.55Q168.82-14.41 167.7-14.4 166.57-14.38 166.29-14.52L166.29-14.52Q165.66-14.77 165.57-16.05 165.48-17.33 166.01-17.75L166.01-17.75Q166.25-17.93 166.24-18.04 166.22-18.14 165.94-18.28L165.94-18.28Q165.45-18.49 165.45-18.77L165.45-18.77Q165.45-19.09 167.57-19.09 169.7-19.09 169.98-18.77L169.98-18.77Q170.19-18.53 170.12-18.32 170.05-18.11 169.79-18.04 169.52-17.96 169.07-18.07L169.07-18.07Q167.27-18.53 167.38-18L167.38-18Q167.41-17.86 167.66-17.61L167.66-17.61Q168.26-17.09 168.71-16.4 169.17-15.71 169.24-15.24 169.31-14.77 169.07-14.55ZM169.84-20.18L169.84-20.18Q169.59-20 162.25-20.06 154.9-20.11 154.65-20.29L154.65-20.29Q154.2-20.57 154.2-21.6 154.2-22.64 154.65-22.92L154.65-22.92Q154.9-23.1 162.25-23.13 169.59-23.17 169.84-22.99L169.84-22.99Q170.3-22.71 170.3-21.59 170.3-20.46 169.84-20.18ZM169.77-24.26L169.77-24.26Q169.49-24.12 162.26-24.1 155.04-24.08 154.76-24.22L154.76-24.22Q154.2-24.5 154.2-25.61 154.2-26.72 154.79-27L154.79-27Q155.07-27.14 162.28-27.14 169.49-27.14 169.77-27L169.77-27Q170.3-26.72 170.3-25.63 170.3-24.54 169.77-24.26Z" transform="translate(-2.0163636207580566, 30.489999771118164)"></path></g> <!----> <!----> <!----> <!----> <!----> <!----> <!----></g></g> <g data-gra="path-slogan" fill-rule="" class="tp-slogan iconsvg-slogansvg" fill="#333" transform="translate(15.479698181152344,39.646820068359375)"><!----> <!----> <g transform="scale(1, 1)"><g transform="scale(1)"><path d="M3.09-7.59L0.19-7.59L0.19-8.58L7.13-8.58L7.13-7.59L4.22-7.59L4.22 0L3.09 0L3.09-7.59ZM8.34-8.58L9.52-8.58L9.52 0L8.34 0L8.34-8.58ZM17.16 0L16.31-2.48L12.84-2.48L11.95 0L10.78 0L14.02-8.58L15.33-8.58L18.42 0L17.16 0ZM14.58-7.31L13.22-3.52L15.89-3.52L14.63-7.31L14.58-7.31ZM20.86-8.58L25.17-1.64L25.17-8.58L26.30-8.58L26.30 0L24.98 0L20.63-6.94L20.58-6.94L20.58 0L19.45 0L19.45-8.58L20.86-8.58ZM27.38-1.92L27.38-2.77L28.45-2.77L28.45-2.16Q28.45-0.75 29.77-0.75L29.77-0.75Q31.13-0.75 31.13-2.25L31.13-2.25L31.13-8.58L32.30-8.58L32.30-2.30Q32.25 0.09 29.81 0.14L29.81 0.14Q27.52 0.09 27.38-1.92L27.38-1.92ZM34.27-8.58L35.44-8.58L35.44 0L34.27 0L34.27-8.58ZM38.81-8.58L43.13-1.64L43.13-8.58L44.25-8.58L44.25 0L42.94 0L38.58-6.94L38.53-6.94L38.53 0L37.41 0L37.41-8.58L38.81-8.58ZM50.20-1.03L55.50-1.03L55.50 0L48.75 0L48.75-0.94L54-7.59L49.13-7.59L49.13-8.58L55.50-8.58L55.50-7.59L50.20-1.03ZM57.80-5.06L62.30-5.06L62.30-8.58L63.47-8.58L63.47 0L62.30 0L62.30-3.98L57.80-3.98L57.80 0L56.63 0L56.63-8.58L57.80-8.58L57.80-5.06ZM65.44-8.58L66.61-8.58L66.61 0L65.44 0L65.44-8.58ZM72.70-3.70L69.89-3.70L69.89 0L68.72 0L68.72-8.58L72.70-8.58Q75.56-8.58 75.56-6.28L75.56-6.28Q75.56-4.88 74.34-4.22L74.34-4.22Q75.38-3.94 75.38-2.58L75.38-2.58L75.47-1.03Q75.42-0.38 75.89-0.19L75.89-0.19L75.89 0L74.44 0Q74.30-0.61 74.25-2.16L74.25-2.16Q74.30-3.70 72.70-3.70L72.70-3.70ZM72.80-7.64L69.89-7.64L69.89-4.69L72.61-4.69Q74.34-4.69 74.34-6.19L74.34-6.19Q74.34-7.64 72.80-7.64L72.80-7.64ZM84-4.27L84-4.27Q83.81-7.64 81-7.83L81-7.83Q78.14-7.69 78-4.27L78-4.27Q78.14-0.94 81-0.80L81-0.80Q83.81-0.98 84-4.27ZM85.17-4.27L85.17-4.27Q84.89 0 81 0.14L81 0.14Q77.06 0 76.78-4.27L76.78-4.27Q77.02-8.72 81-8.81L81-8.81Q84.89-8.67 85.17-4.27ZM87.94-8.58L92.25-1.64L92.25-8.58L93.38-8.58L93.38 0L92.06 0L87.70-6.94L87.66-6.94L87.66 0L86.53 0L86.53-8.58L87.94-8.58ZM101.58-3.61L98.95-3.61L98.95-4.59L102.70-4.59L102.70 0L101.95 0L101.67-1.08Q100.69 0.09 98.86 0.14L98.86 0.14Q97.13 0.14 96.19-0.75L96.19-0.75Q94.78-2.06 94.83-4.36L94.83-4.36Q95.16-8.63 98.91-8.81L98.91-8.81Q102.09-8.63 102.56-6L102.56-6L101.44-6Q100.97-7.78 98.86-7.83L98.86-7.83Q96.19-7.64 96.05-4.31L96.05-4.31Q96.05-0.75 98.91-0.75L98.91-0.75Q99.94-0.75 100.69-1.31L100.69-1.31Q101.63-2.06 101.58-3.61L101.58-3.61ZM110.77-6.09L110.77-6.09L109.69-6.09Q109.59-7.73 107.53-7.83L107.53-7.83Q105.61-7.78 105.61-6.33L105.61-6.33Q105.61-5.39 106.64-5.25L106.64-5.25L109.08-4.69Q111-4.22 111-2.34L111-2.34Q110.95 0.05 107.63 0.14L107.63 0.14Q105.80 0.14 105.05-0.61L105.05-0.61Q104.11-1.31 104.16-2.77L104.16-2.77L105.28-2.77Q105.33-0.80 107.63-0.75L107.63-0.75Q109.88-0.80 109.92-2.20L109.92-2.20Q110.11-3.38 108.05-3.75L108.05-3.75L106.27-4.13Q104.44-4.64 104.44-6.19L104.44-6.19Q104.58-8.72 107.44-8.81L107.44-8.81Q110.67-8.81 110.77-6.09ZM113.63-5.06L118.13-5.06L118.13-8.58L119.30-8.58L119.30 0L118.13 0L118.13-3.98L113.63-3.98L113.63 0L112.45 0L112.45-8.58L113.63-8.58L113.63-5.06ZM122.39-1.03L127.55-1.03L127.55 0L121.22 0L121.22-8.58L127.45-8.58L127.45-7.59L122.39-7.59L122.39-4.92L127.08-4.92L127.08-3.89L122.39-3.89L122.39-1.03ZM130.45-8.58L134.77-1.64L134.77-8.58L135.89-8.58L135.89 0L134.58 0L130.22-6.94L130.17-6.94L130.17 0L129.05 0L129.05-8.58L130.45-8.58ZM144.09-3.61L141.47-3.61L141.47-4.59L145.22-4.59L145.22 0L144.47 0L144.19-1.08Q143.20 0.09 141.38 0.14L141.38 0.14Q139.64 0.14 138.70-0.75L138.70-0.75Q137.30-2.06 137.34-4.36L137.34-4.36Q137.67-8.63 141.42-8.81L141.42-8.81Q144.61-8.63 145.08-6L145.08-6L143.95-6Q143.48-7.78 141.38-7.83L141.38-7.83Q138.70-7.64 138.56-4.31L138.56-4.31Q138.56-0.75 141.42-0.75L141.42-0.75Q142.45-0.75 143.20-1.31L143.20-1.31Q144.14-2.06 144.09-3.61L144.09-3.61Z" transform="translate(-0.1875, 8.8125)"></path></g></g></g></g></g><defs v-gra="od"></defs></svg>